<svg width="1024" height="1024" viewBox="0 0 1024 1024" xmlns="http://www.w3.org/2000/svg">
  <defs>
    <!-- Modern gradient background -->
    <linearGradient id="bg-gradient" x1="0%" y1="0%" x2="100%" y2="100%">
      <stop offset="0%" style="stop-color:#667eea;stop-opacity:1" />
      <stop offset="100%" style="stop-color:#764ba2;stop-opacity:1" />
    </linearGradient>

    <!-- Image icon gradient -->
    <linearGradient id="image-gradient" x1="0%" y1="0%" x2="100%" y2="100%">
      <stop offset="0%" style="stop-color:#ffffff;stop-opacity:0.95" />
      <stop offset="100%" style="stop-color:#f8f9fa;stop-opacity:0.85" />
    </linearGradient>

    <!-- Text bubble gradient -->
    <linearGradient id="text-gradient" x1="0%" y1="0%" x2="100%" y2="100%">
      <stop offset="0%" style="stop-color:#4facfe;stop-opacity:1" />
      <stop offset="100%" style="stop-color:#00f2fe;stop-opacity:1" />
    </linearGradient>

    <!-- AI sparkle gradient -->
    <linearGradient id="sparkle-gradient" x1="0%" y1="0%" x2="100%" y2="100%">
      <stop offset="0%" style="stop-color:#ffd89b;stop-opacity:1" />
      <stop offset="100%" style="stop-color:#19547b;stop-opacity:1" />
    </linearGradient>
  </defs>

  <!-- Rounded rectangle background -->
  <rect x="0" y="0" width="1024" height="1024" rx="180" ry="180" fill="url(#bg-gradient)"/>

  <!-- Main image icon (photo frame) -->
  <g transform="translate(512, 400)">
    <!-- Photo frame -->
    <rect x="-200" y="-120" width="400" height="280" rx="24" ry="24" fill="url(#image-gradient)" stroke="rgba(255,255,255,0.3)" stroke-width="4"/>

    <!-- Mountain landscape inside -->
    <g clip-path="url(#photo-clip)">
      <defs>
        <clipPath id="photo-clip">
          <rect x="-176" y="-96" width="352" height="232" rx="16" ry="16"/>
        </clipPath>
      </defs>

      <!-- Sky -->
      <rect x="-176" y="-96" width="352" height="232" fill="#87ceeb"/>

      <!-- Mountains -->
      <polygon points="-176,40 -80,-20 20,60 176,136 176,136 -176,136" fill="#8b7355"/>
      <polygon points="-80,-20 60,-40 120,20 20,60" fill="#a0956b"/>

      <!-- Sun -->
      <circle cx="100" cy="-40" r="30" fill="#ffd700"/>
    </g>

    <!-- Photo corner indicator -->
    <circle cx="160" cy="-80" r="12" fill="rgba(255,255,255,0.8)"/>
  </g>

  <!-- Speech bubble for caption -->
  <g transform="translate(700, 600)">
    <!-- Bubble background -->
    <path d="M -80 -40 L 80 -40 Q 100 -40 100 -20 L 100 20 Q 100 40 80 40 L -20 40 L -40 60 L -60 40 L -80 40 Q -100 40 -100 20 L -100 -20 Q -100 -40 -80 -40 Z"
          fill="url(#text-gradient)"
          stroke="rgba(255,255,255,0.4)"
          stroke-width="3"/>

    <!-- Text lines inside bubble -->
    <rect x="-70" y="-25" width="120" height="8" rx="4" fill="rgba(255,255,255,0.9)"/>
    <rect x="-70" y="-10" width="90" height="8" rx="4" fill="rgba(255,255,255,0.7)"/>
    <rect x="-70" y="5" width="110" height="8" rx="4" fill="rgba(255,255,255,0.8)"/>
    <rect x="-70" y="20" width="70" height="8" rx="4" fill="rgba(255,255,255,0.6)"/>
  </g>

  <!-- AI sparkle indicators -->
  <g transform="translate(350, 200)">
    <!-- Large sparkle -->
    <path d="M 0 -20 L 6 -6 L 20 0 L 6 6 L 0 20 L -6 6 L -20 0 L -6 -6 Z" fill="url(#sparkle-gradient)"/>

    <!-- Medium sparkle -->
    <g transform="translate(40, 30) scale(0.7)">
      <path d="M 0 -15 L 4 -4 L 15 0 L 4 4 L 0 15 L -4 4 L -15 0 L -4 -4 Z" fill="#ffd89b"/>
    </g>

    <!-- Small sparkle -->
    <g transform="translate(-30, 40) scale(0.5)">
      <path d="M 0 -10 L 3 -3 L 10 0 L 3 3 L 0 10 L -3 3 L -10 0 L -3 -3 Z" fill="#ffec8c"/>
    </g>
  </g>

  <!-- Connection line (AI processing) -->
  <g opacity="0.6">
    <path d="M 500 480 Q 580 520 620 560"
          stroke="rgba(255,255,255,0.8)"
          stroke-width="6"
          stroke-linecap="round"
          stroke-dasharray="12,8"
          fill="none"/>

    <!-- Arrow at end -->
    <polygon points="620,560 615,550 625,550" fill="rgba(255,255,255,0.8)"/>
  </g>
</svg>